<svg width="28" height="28" viewBox="0 0 28 28" fill="none" xmlns="http://www.w3.org/2000/svg">
<path fill-rule="evenodd" clip-rule="evenodd" d="M7 16.5C7 15.2905 7.85888 14.2816 9 14.05V6.5V6H10V6.5V14.05C11.1411 14.2816 12 15.2905 12 16.5C12 17.7095 11.1411 18.7184 10 18.95V18.9523V18.9574V18.9625V18.9677V18.9728V18.978V18.9832V18.9884V18.9937V18.999V19.0043V19.0096V19.0149V19.0203V19.0257V19.0311V19.0365V19.042V19.0474V19.0529V19.0584V19.064V19.0695V19.0751V19.0807V19.0863V19.092V19.0977V19.1033V19.1091V19.1148V19.1205V19.1263V19.1321V19.1379V19.1437V19.1496V19.1555V19.1613V19.1673V19.1732V19.1791V19.1851V19.1911V19.1971V19.2031V19.2092V19.2153V19.2213V19.2275V19.2336V19.2397V19.2459V19.2521V19.2583V19.2645V19.2707V19.277V19.2833V19.2896V19.2959V19.3022V19.3085V19.3149V19.3213V19.3277V19.3341V19.3405V19.347V19.3535V19.3599V19.3665V19.373V19.3795V19.3861V19.3926V19.3992V19.4058V19.4125V19.4191V19.4257V19.4324V19.4391V19.4458V19.4525V19.4593V19.466V19.4728V19.4796V19.4864V19.4932V19.5V19.5068V19.5137V19.5206V19.5275V19.5344V19.5413V19.5482V19.5552V19.5621V19.5691V19.5761V19.5831V19.5901V19.5972V19.6042V19.6113V19.6183V19.6254V19.6325V19.6397V19.6468V19.6539V19.6611V19.6683V19.6754V19.6826V19.6898V19.6971V19.7043V19.7115V19.7188V19.7261V19.7334V19.7407V19.748V19.7553V19.7626V19.77V19.7773V19.7847V19.7921V19.7995V19.8069V19.8143V19.8217V19.8291V19.8366V19.8441V19.8515V19.859V19.8665V19.874V19.8815V19.889V19.8966V19.9041V19.9117V19.9192V19.9268V19.9344V19.942V19.9496V19.9572V19.9648V19.9725V19.9801V19.9878V19.9954V20.0031V20.0108V20.0185V20.0262V20.0339V20.0416V20.0493V20.0571V20.0648V20.0725V20.0803V20.0881V20.0958V20.1036V20.1114V20.1192V20.127V20.1348V20.1427V20.1505V20.1583V20.1662V20.174V20.1819V20.1897V20.1976V20.2055V20.2134V20.2213V20.2292V20.2371V20.245V20.2529V20.2608V20.2688V20.2767V20.2846V20.2926V20.3005V20.3085V20.3165V20.3244V20.3324V20.3404V20.3484V20.3564V20.3644V20.3724V20.3804V20.3884V20.3964V20.4044V20.4125V20.4205V20.4285V20.4366V20.4446V20.4526V20.4607V20.4688V20.4768V20.4849V20.4929V20.501V20.5091V20.5172V20.5252V20.5333V20.5414V20.5495V20.5576V20.5657V20.5738V20.5819V20.59V20.5981V20.6062V20.6143V20.6224V20.6305V20.6386V20.6468V20.6549V20.663V20.6711V20.6792V20.6874V20.6955V20.7036V20.7118V20.7199V20.728V20.7362V20.7443V20.7524V20.7606V20.7687V20.7768V20.785V20.7931V20.8013V20.8094V20.8175V20.8257V20.8338V20.8419V20.8501V20.8582V20.8664V20.8745V20.8826V20.8908V20.8989V20.907V20.9152V20.9233V20.9314V20.9395V20.9477V20.9558V20.9639V20.972V20.9802V20.9883V20.9964V21.0045V21.0126V21.0207V21.0288V21.037V21.0451V21.0532V21.0613V21.0693V21.0774V21.0855V21.0936V21.1017V21.1098V21.1179V21.1259V21.134V21.1421V21.1501V21.1582V21.1663V21.1743V21.1824V21.1904V21.1984V21.2065V21.2145V21.2225V21.2306V21.2386V21.2466V21.2546V21.2626V21.2706V21.2786V21.2866V21.2946V21.3025V21.3105V21.3185V21.3264V21.3344V21.3423V21.3503V21.3582V21.3662V21.3741V21.382V21.3899V21.3978V21.4057V21.4136V21.4215V21.4294V21.4373V21.4451V21.453V21.4608V21.4687V21.4765V21.4844V21.4922V21.5V22H9V21.5V21.4922V21.4844V21.4765V21.4687V21.4608V21.453V21.4451V21.4373V21.4294V21.4215V21.4136V21.4057V21.3978V21.3899V21.382V21.3741V21.3662V21.3582V21.3503V21.3423V21.3344V21.3264V21.3185V21.3105V21.3025V21.2946V21.2866V21.2786V21.2706V21.2626V21.2546V21.2466V21.2386V21.2306V21.2225V21.2145V21.2065V21.1984V21.1904V21.1824V21.1743V21.1663V21.1582V21.1501V21.1421V21.134V21.1259V21.1179V21.1098V21.1017V21.0936V21.0855V21.0774V21.0693V21.0613V21.0532V21.0451V21.037V21.0288V21.0207V21.0126V21.0045V20.9964V20.9883V20.9802V20.972V20.9639V20.9558V20.9477V20.9395V20.9314V20.9233V20.9152V20.907V20.8989V20.8908V20.8826V20.8745V20.8664V20.8582V20.8501V20.8419V20.8338V20.8257V20.8175V20.8094V20.8013V20.7931V20.785V20.7768V20.7687V20.7606V20.7524V20.7443V20.7362V20.728V20.7199V20.7118V20.7036V20.6955V20.6874V20.6792V20.6711V20.663V20.6549V20.6468V20.6386V20.6305V20.6224V20.6143V20.6062V20.5981V20.59V20.5819V20.5738V20.5657V20.5576V20.5495V20.5414V20.5333V20.5252V20.5172V20.5091V20.501V20.4929V20.4849V20.4768V20.4688V20.4607V20.4526V20.4446V20.4366V20.4285V20.4205V20.4125V20.4044V20.3964V20.3884V20.3804V20.3724V20.3644V20.3564V20.3484V20.3404V20.3324V20.3244V20.3165V20.3085V20.3005V20.2926V20.2846V20.2767V20.2688V20.2608V20.2529V20.245V20.2371V20.2292V20.2213V20.2134V20.2055V20.1976V20.1897V20.1819V20.174V20.1662V20.1583V20.1505V20.1427V20.1348V20.127V20.1192V20.1114V20.1036V20.0958V20.0881V20.0803V20.0725V20.0648V20.0571V20.0493V20.0416V20.0339V20.0262V20.0185V20.0108V20.0031V19.9954V19.9878V19.9801V19.9725V19.9648V19.9572V19.9496V19.942V19.9344V19.9268V19.9192V19.9117V19.9041V19.8966V19.889V19.8815V19.874V19.8665V19.859V19.8515V19.8441V19.8366V19.8291V19.8217V19.8143V19.8069V19.7995V19.7921V19.7847V19.7773V19.77V19.7626V19.7553V19.748V19.7407V19.7334V19.7261V19.7188V19.7115V19.7043V19.6971V19.6898V19.6826V19.6754V19.6683V19.6611V19.6539V19.6468V19.6397V19.6325V19.6254V19.6183V19.6113V19.6042V19.5972V19.5901V19.5831V19.5761V19.5691V19.5621V19.5552V19.5482V19.5413V19.5344V19.5275V19.5206V19.5137V19.5068V19.5V19.4932V19.4864V19.4796V19.4728V19.466V19.4593V19.4525V19.4458V19.4391V19.4324V19.4257V19.4191V19.4125V19.4058V19.3992V19.3926V19.3861V19.3795V19.373V19.3665V19.3599V19.3535V19.347V19.3405V19.3341V19.3277V19.3213V19.3149V19.3085V19.3022V19.2959V19.2896V19.2833V19.277V19.2707V19.2645V19.2583V19.2521V19.2459V19.2397V19.2336V19.2275V19.2213V19.2153V19.2092V19.2031V19.1971V19.1911V19.1851V19.1791V19.1732V19.1673V19.1613V19.1555V19.1496V19.1437V19.1379V19.1321V19.1263V19.1205V19.1148V19.1091V19.1033V19.0977V19.092V19.0863V19.0807V19.0751V19.0695V19.064V19.0584V19.0529V19.0474V19.042V19.0365V19.0311V19.0257V19.0203V19.0149V19.0096V19.0043V18.999V18.9937V18.9884V18.9832V18.978V18.9728V18.9677V18.9625V18.9574V18.9523V18.95C7.85888 18.7184 7 17.7095 7 16.5ZM8 16.5C8 15.6716 8.67157 15 9.5 15C10.3284 15 11 15.6716 11 16.5C11 17.3284 10.3284 18 9.5 18C8.67157 18 8 17.3284 8 16.5ZM18 6.5V6H19V6.5V6.50782V6.51564V6.52347V6.53131V6.53916V6.54701V6.55487V6.56274V6.57061V6.57849V6.58638V6.59427V6.60217V6.61008V6.618V6.62592V6.63384V6.64177V6.64971V6.65766V6.66561V6.67356V6.68152V6.68949V6.69746V6.70544V6.71343V6.72141V6.72941V6.73741V6.74541V6.75342V6.76143V6.76945V6.77747V6.7855V6.79353V6.80157V6.80961V6.81765V6.8257V6.83375V6.84181V6.84987V6.85793V6.866V6.87407V6.88214V6.89022V6.8983V6.90638V6.91447V6.92256V6.93065V6.93875V6.94685V6.95495V6.96305V6.97116V6.97926V6.98737V6.99549V7.0036V7.01172V7.01984V7.02796V7.03608V7.0442V7.05233V7.06046V7.06858V7.07671V7.08484V7.09298V7.10111V7.10924V7.11738V7.12551V7.13365V7.14178V7.14992V7.15806V7.1662V7.17433V7.18247V7.19061V7.19875V7.20689V7.21502V7.22316V7.2313V7.23943V7.24757V7.2557V7.26384V7.27197V7.28011V7.28824V7.29637V7.3045V7.31262V7.32075V7.32887V7.337V7.34512V7.35324V7.36136V7.36947V7.37759V7.3857V7.39381V7.40192V7.41002V7.41812V7.42622V7.43432V7.44242V7.45051V7.4586V7.46668V7.47477V7.48284V7.49092V7.49899V7.50706V7.51513V7.52319V7.53125V7.5393V7.54736V7.5554V7.56345V7.57148V7.57952V7.58755V7.59557V7.60359V7.61161V7.61962V7.62763V7.63563V7.64363V7.65162V7.65961V7.66759V7.67556V7.68354V7.6915V7.69946V7.70741V7.71536V7.7233V7.73124V7.73917V7.7471V7.75501V7.76293V7.77083V7.77873V7.78662V7.79451V7.80239V7.81026V7.81812V7.82598V7.83383V7.84167V7.84951V7.85734V7.86516V7.87297V7.88078V7.88858V7.89637V7.90415V7.91193V7.91969V7.92745V7.9352V7.94294V7.95068V7.9584V7.96612V7.97382V7.98152V7.98921V7.99689V8.00456V8.01223V8.01988V8.02752V8.03516V8.04278V8.0504V8.058V8.0656V8.07318V8.08076V8.08832V8.09588V8.10342V8.11096V8.11848V8.126V8.1335V8.14099V8.14847V8.15594V8.1634V8.17085V8.17829V8.18572V8.19313V8.20054V8.20793V8.21531V8.22268V8.23004V8.23738V8.24471V8.25204V8.25934V8.26664V8.27393V8.2812V8.28846V8.2957V8.30294V8.31016V8.31737V8.32457V8.33175V8.33892V8.34608V8.35322V8.36035V8.36747V8.37457V8.38166V8.38873V8.39579V8.40284V8.40988V8.4169V8.4239V8.43089V8.43787V8.44483V8.45178V8.45871V8.46563V8.47254V8.47942V8.4863V8.49316V8.5V8.50683V8.51364V8.52044V8.52722V8.53399V8.54074V8.54747V8.55419V8.56089V8.56758V8.57425V8.58091V8.58755V8.59417V8.60077V8.60736V8.61393V8.62049V8.62703V8.63355V8.64005V8.64654V8.65301V8.65946V8.6659V8.67232V8.67872V8.6851V8.69146V8.69781V8.70414V8.71045V8.71674V8.72302V8.72927V8.73551V8.74173V8.74793V8.75411V8.76028V8.76642V8.77255V8.77865V8.78474V8.79081V8.79686V8.80289V8.8089V8.81489V8.82086V8.82681V8.83274V8.83866V8.84455V8.85042V8.85627V8.8621V8.86791V8.8737V8.87947V8.88522V8.89095V8.89666V8.90234V8.90801V8.91365V8.91928V8.92488V8.93046V8.93602V8.94156V8.94707V8.95257V8.95804V8.96349V8.96892V8.97433V8.97971V8.98508V8.99042V8.99574V9.00103V9.0063V9.01155V9.01678V9.02199V9.02717V9.03233V9.03746V9.04257V9.04766V9.05001C20.1411 9.28164 21 10.2905 21 11.5C21 12.7095 20.1411 13.7184 19 13.95V21.5V22H18V21.5V13.95C16.8589 13.7184 16 12.7095 16 11.5C16 10.2905 16.8589 9.28164 18 9.05001V9.04766V9.04257V9.03746V9.03233V9.02717V9.02199V9.01678V9.01155V9.0063V9.00103V8.99574V8.99042V8.98508V8.97971V8.97433V8.96892V8.96349V8.95804V8.95257V8.94707V8.94156V8.93602V8.93046V8.92488V8.91928V8.91365V8.90801V8.90234V8.89666V8.89095V8.88522V8.87947V8.8737V8.86791V8.8621V8.85627V8.85042V8.84455V8.83866V8.83274V8.82681V8.82086V8.81489V8.8089V8.80289V8.79686V8.79081V8.78474V8.77865V8.77255V8.76642V8.76028V8.75411V8.74793V8.74173V8.73551V8.72927V8.72302V8.71674V8.71045V8.70414V8.69781V8.69146V8.6851V8.67872V8.67232V8.6659V8.65946V8.65301V8.64654V8.64005V8.63355V8.62703V8.62049V8.61393V8.60736V8.60077V8.59417V8.58755V8.58091V8.57425V8.56758V8.56089V8.55419V8.54747V8.54074V8.53399V8.52722V8.52044V8.51364V8.50683V8.5V8.49316V8.4863V8.47942V8.47254V8.46563V8.45871V8.45178V8.44483V8.43787V8.43089V8.4239V8.4169V8.40988V8.40284V8.39579V8.38873V8.38166V8.37457V8.36747V8.36035V8.35322V8.34608V8.33892V8.33175V8.32457V8.31737V8.31016V8.30294V8.2957V8.28846V8.2812V8.27393V8.26664V8.25934V8.25204V8.24471V8.23738V8.23004V8.22268V8.21531V8.20793V8.20054V8.19313V8.18572V8.17829V8.17085V8.1634V8.15594V8.14847V8.14099V8.1335V8.126V8.11848V8.11096V8.10342V8.09588V8.08832V8.08076V8.07318V8.0656V8.058V8.0504V8.04278V8.03516V8.02752V8.01988V8.01223V8.00456V7.99689V7.98921V7.98152V7.97382V7.96612V7.9584V7.95068V7.94294V7.9352V7.92745V7.91969V7.91193V7.90415V7.89637V7.88858V7.88078V7.87297V7.86516V7.85734V7.84951V7.84167V7.83383V7.82598V7.81812V7.81026V7.80239V7.79451V7.78662V7.77873V7.77083V7.76293V7.75501V7.7471V7.73917V7.73124V7.7233V7.71536V7.70741V7.69946V7.6915V7.68354V7.67556V7.66759V7.65961V7.65162V7.64363V7.63563V7.62763V7.61962V7.61161V7.60359V7.59557V7.58755V7.57952V7.57148V7.56345V7.5554V7.54736V7.5393V7.53125V7.52319V7.51513V7.50706V7.49899V7.49092V7.48284V7.47477V7.46668V7.4586V7.45051V7.44242V7.43432V7.42622V7.41812V7.41002V7.40192V7.39381V7.3857V7.37759V7.36947V7.36136V7.35324V7.34512V7.337V7.32887V7.32075V7.31262V7.3045V7.29637V7.28824V7.28011V7.27197V7.26384V7.2557V7.24757V7.23943V7.2313V7.22316V7.21502V7.20689V7.19875V7.19061V7.18247V7.17433V7.1662V7.15806V7.14992V7.14178V7.13365V7.12551V7.11738V7.10924V7.10111V7.09298V7.08484V7.07671V7.06858V7.06046V7.05233V7.0442V7.03608V7.02796V7.01984V7.01172V7.0036V6.99549V6.98737V6.97926V6.97116V6.96305V6.95495V6.94685V6.93875V6.93065V6.92256V6.91447V6.90638V6.8983V6.89022V6.88214V6.87407V6.866V6.85793V6.84987V6.84181V6.83375V6.8257V6.81765V6.80961V6.80157V6.79353V6.7855V6.77747V6.76945V6.76143V6.75342V6.74541V6.73741V6.72941V6.72141V6.71343V6.70544V6.69746V6.68949V6.68152V6.67356V6.66561V6.65766V6.64971V6.64177V6.63384V6.62592V6.618V6.61008V6.60217V6.59427V6.58638V6.57849V6.57061V6.56274V6.55487V6.54701V6.53916V6.53131V6.52347V6.51564V6.50782V6.5ZM18.5 10C17.6716 10 17 10.6716 17 11.5C17 12.3284 17.6716 13 18.5 13C19.3284 13 20 12.3284 20 11.5C20 10.6716 19.3284 10 18.5 10Z" fill="#131722"/>
</svg>
